<svg xmlns="http://www.w3.org/2000/svg" width="264" height="55" viewBox="0 0 235 49">
    <g fill="none" fill-rule="evenodd">
        <g>
            <g>
                <g>
                    <path fill="#31A062" d="M4.939 31.322S-3.673 17.05 1.854 14.446c5.529-2.604 3.504-9.044 12.644-7.399 9.14 1.646 14.42-11.236 22.367-5.022 7.948 6.214 14.776-6.027 19.979 5.553 5.201 11.58 14.03 8.688 14.13 13.171.098 4.484-13.944 6.303-13.944 6.303l-52.091 4.27z" transform="translate(-160 -22) translate(160 22)"/>
                    <path fill="#C67052" d="M58.109 24.829c.944-1.02 12.402-5.565 17.208 2.196 4.806 7.762 5.654-1.48 5 3.747-.656 5.228.531 11.703-5.462 9.172C68.862 37.414 58.11 24.83 58.11 24.83" transform="translate(-160 -22) translate(160 22)"/>
                    <path fill="#FBB040" d="M9.775 40.277C4.23 40.1.523 34.483 2.566 29.325c2.754-6.95 8.428-15.361 20.073-18.804 21.399-6.327 35.746 3.164 50.951 29.423 0 0 11.091 6.336 4.763-15.657 0 0-6.57-14.077-17.641-14.083 0 0-2.616 4.392 5.55 6.169 8.166 1.777-.259 8.84 7.328 11.865 7.587 3.024 7.076 11.283-4.52 12.56-8.592.947-42.372.022-59.295-.52" transform="translate(-160 -22) translate(160 22)"/>
                    <path fill="#231F20" d="M53.414 42.08c-13.949 0-36.82-.163-44.12-1.183-3.615-.504-6.09-1.927-7.355-4.23-1.92-3.493-.227-7.664.014-8.22.487-1.354 7.805-20.29 34.672-20.863 18.459-.35 27.227 14.227 33.036 23.901 2.512 4.182 4.884 8.118 6.505 7.862 1.456-.24 2.822-3.092 2.486-7.908-.474-6.774-5.297-19.679-20.158-20.028l.06-2.53c14.49.34 21.884 11.84 22.623 22.381.412 5.901-1.393 10.055-4.6 10.584-3.292.55-5.736-3.481-9.087-9.058-5.838-9.72-13.835-23.04-30.81-22.673-25.952.552-32.286 19.008-32.348 19.194l-.051.13c-.013.033-1.527 3.47-.117 6.02.86 1.558 2.705 2.544 5.48 2.932 9.357 1.306 46.338 1.171 53.647 1.13.697-.004 1.259.557 1.264 1.255.005.7-.549 1.272-1.25 1.276-1.82.011-5.39.028-9.891.028" transform="translate(-160 -22) translate(160 22)"/>
                    <path stroke="#231F20" stroke-width="3.249" d="M71.25 36.44c11.97-13.07-3.312-9.244-.855-15.326 2.458-6.082-9.794-2.994-11.87-10.968-3.797-14.582-15.986-2.644-19.077-6.068C33.7-2.292 30.374.977 27.017 2.745c-3.357 1.77-4.963 6.076-11.44 4.856C9.1 6.381 9.975 15.53 2.934 15c-7.041-.53.817 12.423.817 12.423" transform="translate(-160 -22) translate(160 22)"/>
                    <path fill="#BB832E" d="M16.131 31.114c0 .458-.37.829-.829.829-.457 0-.827-.371-.827-.829 0-.457.37-.828.827-.828.459 0 .83.37.83.828M18.919 27.025c0 .458-.371.828-.829.828-.457 0-.828-.37-.828-.828 0-.458.37-.828.828-.828.458 0 .829.37.829.828M25.915 36.44c0 .458-.37.829-.828.829-.458 0-.828-.37-.828-.828 0-.458.37-.829.828-.829.457 0 .828.371.828.829M29.693 31.114c0 .458-.37.829-.828.829-.458 0-.828-.371-.828-.829 0-.457.37-.828.828-.828.457 0 .828.37.828.828M31.808 24.069c0 .457-.371.828-.83.828-.456 0-.827-.37-.827-.828 0-.458.37-.829.827-.829.459 0 .83.371.83.829M26.743 19.921c0 .458-.37.829-.828.829-.457 0-.828-.371-.828-.829 0-.458.37-.828.828-.828.458 0 .828.37.828.828M40.668 34.784c0 .458-.37.828-.828.828-.458 0-.829-.37-.829-.828 0-.458.371-.828.829-.828.457 0 .828.37.828.828M41.496 30.286c0 .457-.37.828-.828.828-.458 0-.828-.37-.828-.828 0-.458.37-.829.828-.829.457 0 .828.371.828.829M49.882 34.784c0 .458-.37.828-.828.828-.457 0-.828-.37-.828-.828 0-.458.37-.828.828-.828.458 0 .828.37.828.828M60.712 37.27c0 .457-.371.827-.829.827-.457 0-.828-.37-.828-.828 0-.458.37-.828.828-.828.458 0 .829.37.829.828M58.937 31.875c0 .458-.37.829-.828.829-.458 0-.829-.371-.829-.829 0-.457.371-.828.829-.828.457 0 .828.37.828.828M42.324 23.813c-.457 0-.828-.371-.828-.829 0-.457.371-.828.828-.828.458 0 .83.37.83.828 0 .458-.372.829-.83.829zM39.84 17.202c0 .458-.37.829-.83.829-.456 0-.827-.371-.827-.829 0-.457.371-.828.828-.828.458 0 .829.37.829.828M49.882 27.853c0 .458-.37.829-.828.829-.457 0-.828-.37-.828-.829 0-.457.37-.828.828-.828.458 0 .828.37.828.828" transform="translate(-160 -22) translate(160 22)"/>
                </g>
                <path fill="#FFF" fill-rule="nonzero" d="M94.423 34.564c.73 0 1.095-.464 1.095-1.228 0-.663.034-1.36.133-1.89.929-4.878 2.322-8.693 4.479-12.675.457-.84.737-1.327.908-1.622l.136-.239c.095-.17.117-.227.117-.295 0-.066-.033-.166-.1-.265 1.328-.3 2.92-.498 4.38-.498.166 0 .83.232.93.332.231.232.464.464.862.464.332 0 .896-.232 1.095-.365.464-.332.696-.697.696-1.294 0-.564-2.09-1.957-3.55-1.957-1.791 0-3.417.232-4.943.53-.664.133-3.052.498-4.778.498-1.659 0-1.56-.232-2.256-.232-.398 0-.597.2-.763.365-.166.166-.265.83-.265 1.427 0 .298 0 .53.166.73.497.597 1.46.73 2.422.73.829 0 1.293-.067 1.393-.067.1 0 .166.033.166.133 0 .036-.01.082-.057.197l-.06.14c-.037.084-.085.19-.149.326-2.023 4.347-3.417 8.76-4.644 13.636-.034.133-.133.63-.133 1.128 0 .465.133.963.597 1.228.896.53 1.626.763 2.123.763zm21.711 2.787c.63 0 1.261-.664 1.261-1.26 0-.3-.63-.93-.63-2.954 0-2.123.133-4.678.199-5.408.066-.597.1-.63.199-.73.398-.398.962-.398 1.593-.398.763 0 1.625-.033 2.322-.962.1-.132.166-.265.166-.431 0-.166-.067-.299-.266-.53-.564-.631-1.625-.83-2.587-.83-.498 0-.963.1-1.029.1-.142 0-.162-.098-.165-.23v-.07c0-.298.33-5.341.696-7.464.066-.399.1-.83.1-1.062 0-.431.464-2.621.464-3.119 0-.132-.232-.63-.398-.763-.332-.265-.83-.365-1.327-.365-.598 0-1.228.166-1.493.2-.63.066-1.095.132-1.46.663-3.782 5.507-6.403 10.119-9.09 14.963-.167.299-.233.365-.3.365-.066 0-.132-.033-.265-.1-.497-.265-.73-.331-1.062-.331-.265 0-.43.033-.597.298-.398.664-.497 1.46-.497 1.825 0 .464.365.73.995 1.095.166.1.199.133.199.199 0 .033 0 .1-.066.398-.233 1.062-.299 1.692-.299 2.356 0 1.028 0 1.89 1.128 2.455l.398.199c.266.133.498.166.63.166.631 0 1.03-.564 1.36-.763.167-.1.233-.2.233-.332 0-.166-.066-.63-.066-.962 0-2.124.464-2.92.564-3.185.1-.233.133-.299.431-.365 1.813-.4 4.308-1.254 5.01-1.51l.133-.05c.398-.166.63-.199.73-.199.1 0 .1.1.1.299 0 .431-.167 2.654-.167 4.014 0 1.56.299 3.683.664 4.048.564.564 1.526.73 2.19.73zm-7.232-10.65c-.1 0-.166-.033-.166-.1 0-.1.033-.165.232-.564 1.294-2.587 3.252-6.204 5.11-9.323.199-.331.265-.364.331-.364.067 0 .067.165.067.398 0 .497-.93 7.597-.93 8.128 0 .2-.066.332-.265.398-.763.266-1.858.697-2.123.797-.697.265-2.09.63-2.256.63zm20.715 8.294c.531 0 1.029 0 1.46-.166 1.692-.63 2.124-1.858 2.124-3.185 0-.597-.1-1.194-.233-1.99-.431-2.555-1.824-7.067-2.322-9.157-.133-.564-.431-2.124-.431-3.351 0-1.128.365-2.157.63-2.157.199 0 .464.166.63.498.299.564.365 1.626.598 1.858.398.398.929 1.062 1.791 1.294.498.132.63.132.763.132.763 0 .962-.298.962-.696 0-.266-.066-.398-.166-.962-.331-1.925-1.725-4.844-6.635-4.844-2.057 0-2.123 2.223-2.322 3.118-.067.299-.1.531-.1.763 0 .797.133 1.46.332 2.489.697 3.65 1.957 6.536 2.521 10.218.067.432.133 1.626.133 2.456 0 .232-.166 1.061-.962 1.061-.232 0-.763-.166-1.692-.696-1.195-.664-3.152-2.422-3.152-3.484 0-.398.166-.73.166-1.161 0-.266-.63-.93-1.294-1.327-.564-.332-1.327-.598-1.958-.598-.165 0-.298.034-.398.067-.564.232-.73.862-.73 1.426 0 .697.332 1.858.963 2.754.232.332.53.597.962 1.128 2.09 2.588 5.109 4.512 8.36 4.512zm10.796-.431c.73 0 1.095-.464 1.095-1.228 0-.663.033-1.36.133-1.89.929-4.878 2.322-8.693 4.479-12.675.457-.84.737-1.327.907-1.622l.136-.239c.096-.17.118-.227.118-.295 0-.066-.033-.166-.1-.265 1.327-.3 2.92-.498 4.38-.498.166 0 .83.232.929.332.232.232.464.464.862.464.332 0 .896-.232 1.095-.365.465-.332.697-.697.697-1.294 0-.564-2.09-1.957-3.55-1.957-1.792 0-3.417.232-4.944.53-.663.133-3.052.498-4.777.498-1.66 0-1.56-.232-2.256-.232-.398 0-.597.2-.763.365-.166.166-.266.83-.266 1.427 0 .298 0 .53.166.73.498.597 1.46.73 2.422.73.83 0 1.294-.067 1.394-.067.099 0 .165.033.165.133 0 .066-.033.166-.265.663-2.024 4.347-3.417 8.76-4.645 13.636-.033.133-.133.63-.133 1.128 0 .465.133.963.598 1.228.895.53 1.625.763 2.123.763zm21.38 10.882c.099-.132.132-.265.265-1.26 1.692-12.641 4.578-21.765 9.19-28.201.166-.233.199-.365.199-.498 0-.2-.166-.763-.431-1.062-.697-.763-1.958-.929-2.456-.929-.265 0-.331.067-.497.266-.2.265-.664.962-1.128 1.758-.498.83-.697 1.327-1.062 2.024-1.792 3.384-3.251 5.64-7.2 8.128-.265.166-.53.233-.63.233-.133 0-.166-.034-.166-.398 0-.2.033-.697.166-2.124.2-2.156.83-5.375 1.327-7.896.166-.83.73-1.493.73-2.356 0-.232-.166-1.194-.896-1.26-.431-.034-1.36-.3-1.99-.3-.465 0-.531.067-.664.3-.663 1.128-1.526 6.569-1.56 7.066-.032.399-.331.797-.331 1.527 0 .597-.1.763-.133 1.16-.1 1.328-.199 3.385-.199 3.484 0 .465.564 1.294 1.394 2.024.331.299 1.327.996 2.057 1.327.298.133.63.166.929.166 1.028 0 2.057-.464 2.753-.929.2-.132.332-.199.399-.199.033 0 .066.033.066.067 0 .066-.066.298-.266.995-.829 2.886-1.692 5.972-2.222 8.759-.133.663-.233 1.36-.365 1.957-.266 1.228-.763 2.621-.763 3.982 0 .331.033.63.1.962.132.63.994.995 1.99 1.16.199.034.73.167 1.061.167.133 0 .266 0 .332-.1zm13.316-10.882c.73 0 1.095-.464 1.095-1.228 0-.663.033-1.36.133-1.89.929-4.878 2.322-8.693 4.479-12.675.457-.84.737-1.327.907-1.622l.136-.239c.096-.17.118-.227.118-.295 0-.066-.033-.166-.1-.265 1.328-.3 2.92-.498 4.38-.498.166 0 .83.232.929.332.232.232.464.464.862.464.332 0 .896-.232 1.095-.365.465-.332.697-.697.697-1.294 0-.564-2.09-1.957-3.55-1.957-1.792 0-3.417.232-4.943.53-.664.133-3.053.498-4.778.498-1.659 0-1.56-.232-2.256-.232-.398 0-.597.2-.763.365-.166.166-.266.83-.266 1.427 0 .298 0 .53.166.73.498.597 1.46.73 2.422.73.83 0 1.294-.067 1.394-.067.1 0 .166.033.166.133 0 .036-.01.082-.057.197l-.06.14c-.037.084-.085.19-.149.326-2.024 4.347-3.417 8.76-4.645 13.636-.033.133-.132.63-.132 1.128 0 .465.132.963.597 1.228.896.53 1.626.763 2.123.763zm21.711 2.787c.63 0 1.261-.664 1.261-1.26 0-.3-.63-.93-.63-2.954 0-2.123.132-4.678.199-5.408.066-.597.1-.63.199-.73.398-.398.962-.398 1.592-.398.763 0 1.626-.033 2.323-.962.1-.132.166-.265.166-.431 0-.166-.067-.299-.266-.53-.564-.631-1.626-.83-2.588-.83-.497 0-.962.1-1.028.1-.166 0-.166-.134-.166-.3 0-.182.124-2.136.303-4.113l.05-.539c.104-1.072.222-2.105.344-2.812.066-.399.1-.83.1-1.062 0-.431.464-2.621.464-3.119 0-.132-.233-.63-.398-.763-.332-.265-.83-.365-1.328-.365-.597 0-1.227.166-1.493.2-.63.066-1.094.132-1.46.663-3.782 5.507-6.403 10.119-9.09 14.963-.166.299-.232.365-.299.365-.066 0-.132-.033-.265-.1-.498-.265-.73-.331-1.062-.331-.265 0-.431.033-.597.298-.398.664-.498 1.46-.498 1.825 0 .464.365.73.996 1.095.166.1.199.133.199.199 0 .033 0 .1-.067.398-.232 1.062-.298 1.692-.298 2.356 0 1.028 0 1.89 1.128 2.455l.398.199c.265.133.498.166.63.166.63 0 1.029-.564 1.36-.763.167-.1.233-.2.233-.332 0-.166-.066-.63-.066-.962 0-2.124.464-2.92.564-3.185.1-.233.132-.299.43-.365 1.813-.4 4.308-1.254 5.01-1.51l.133-.05c.399-.166.63-.199.73-.199.1 0 .1.1.1.299 0 .431-.166 2.654-.166 4.014 0 1.56.299 3.683.663 4.048.565.564 1.527.73 2.19.73zm-7.232-10.65c-.1 0-.166-.033-.166-.1 0-.1.033-.165.232-.564 1.294-2.587 3.251-6.204 5.11-9.323.198-.331.265-.364.331-.364s.066.165.066.398c0 .497-.929 7.597-.929 8.128 0 .2-.066.332-.265.398-.763.266-1.858.697-2.123.797-.697.265-2.09.63-2.256.63zm18.758 8.095c3.915 0 6.801-3.716 8.36-5.275.266-.265.465-.332.465-.53 0-.266-.066-.366-.232-.631-.398-.63-.863-.863-1.692-.863-.963 0-1.128.033-1.593.398-.597.465-2.754 2.854-4.777 3.882-.531.266-1.162.465-1.493.465-.399 0-.531-.133-1.129-.73-.331-.332-.364-1.029-.364-1.394 0-.663.1-1.327.132-1.46.896-3.085 2.29-6.337 4.114-8.792 2.09-2.82 2.356-3.152 3.617-4.346.995-.929 1.99-1.194 2.123-1.194.066 0 .133.033.133.1 0 .099-.067.198-.166.397-.1.2-.2.398-.232.598-.067.763-1.162 1.592-1.162 2.455 0 .298.166.663.564.962.498.398.697.431 1.427.564.232.033.465.066.597.066.763 0 1.128-.265 1.294-.763.166-.498.266-.763.896-2.156.431-.963.564-1.46.564-1.692 0-.432-.265-1.095-1.294-2.024-.464-.432-.299-.564-1.128-.896-.597-.232-1.029-.299-1.626-.299-.929 0-2.19.233-2.886.63-5.043 2.887-8.162 8.826-9.987 13.968-.166.465-.464 1.991-.464 3.285 0 .564.033 1.26.199 2.024.232 1.128 1.792 2.223 2.82 2.72.763.365 2.157.531 2.92.531zm16.867.033c2.322 0 4.114-1.293 4.744-2.09 2.157-2.753 3.417-6.503 4.346-10.351.2-.83.332-1.659.332-2.555 0-2.09-.564-4.048-2.389-5.673-.53-.465-.895-.398-1.128-.432-.265-.033-.564-.099-1.426-.464-.398-.166-.73-.265-1.029-.265-.365 0-.929.232-2.19 1.194-.829.63-1.758 1.725-2.786 3.251-2.39 3.55-3.949 6.934-3.949 11.48 0 1.692.299 2.654 1.095 3.815.465.664 1.394 1.493 2.124 1.725.696.233 1.625.365 2.256.365zm-.332-2.687c-.431 0-.73-.199-1.029-.663-.398-.598-.63-1.527-.63-2.422 0-1.427.166-2.92.564-4.214.896-2.92 2.522-5.64 4.745-7.996.597-.63.663-.63.796-.63.1 0 .132.166.464.265 1.095.332 1.128 2.455 1.128 2.688 0 3.782-2.554 9.488-4.114 11.844-.199.299-.962 1.128-1.924 1.128z" transform="translate(-160 -22) translate(160 22)"/>
            </g>
        </g>
    </g>
</svg>
